<?xml version="1.0" encoding="UTF-8"?><svg id="a" xmlns="http://www.w3.org/2000/svg" viewBox="0 0 144.06 18.84"><path d="m143.98.88c-.42-.27-.87-.43-1.37-.49-.5-.06-1-.05-1.51.02-.51.07-1.01.18-1.5.34-.49.16-.94.3-1.36.44-.26-.18-.46-.37-.59-.55-.13-.18-.25-.31-.36-.37-.11-.06-.24-.03-.38.1-.15.13-.38.4-.71.82-.05.07-.12.18-.23.34-.11.15-.23.32-.36.51s-.25.36-.36.52c-.11.16-.19.27-.23.33-.08.01-.17.04-.27.08-.1.04-.12.11-.06.21.11.2.14.46.09.78-.05.32-.14.68-.27,1.07-.13.39-.28.79-.44,1.21-.16.42-.31.82-.43,1.2-.12.38-.2.72-.23,1.02-.03.3.01.54.14.71.03.04.08.1.14.17.06.07.13.15.2.23.07.08.13.16.2.23.06.07.11.12.14.15.06.07.15.16.27.26.12.1.23.2.34.29.11.09.25.21.42.35h.35c.33-.14.66-.3,1.01-.46.35-.17.71-.32,1.08-.44.37-.13.75-.22,1.14-.3.39-.07.77-.08,1.16-.02.39.27.53.63.43,1.08-.1.45-.33.92-.7,1.41s-.8.97-1.32,1.43c-.52.46-1.01.84-1.46,1.13-.46.29-.82.45-1.09.5-.27.04-.35-.11-.22-.46h-.16c-.03.38-.05.83-.07,1.35-.01.52.06.99.23,1.41.14.32.31.51.52.56.21.05.43.03.66-.06.23-.09.47-.23.71-.42.24-.19.45-.37.64-.54.09-.07.23-.19.41-.36.18-.17.37-.34.57-.52.2-.17.39-.34.56-.5.17-.15.28-.26.32-.32,1.16-1.63,1.85-2.98,2.07-4.04.22-1.06.09-1.86-.39-2.38-.48-.53-1.23-.79-2.25-.79s-2.19.25-3.5.76c-.03-.16-.03-.41,0-.77.03-.36.08-.74.16-1.14.08-.4.17-.77.28-1.11.11-.34.22-.56.35-.68.09-.08.16-.12.21-.09.05.02.09.05.12.07.03.03.06.04.08.04s.06-.06.1-.17c.01-.03.04-.09.07-.18.03-.09.06-.19.09-.3.03-.11.07-.2.1-.28.04-.09.07-.14.08-.17.14-.27.45-.55.92-.85.47-.3.99-.59,1.57-.86.57-.27,1.15-.52,1.72-.74.57-.22,1.03-.37,1.37-.45.01,0,.09,0,.21-.02.12-.01.25-.03.37-.05.12-.02.22-.05.29-.1.07-.04.06-.09-.03-.15Z" style="fill:#005426;"/><path d="m131.94,13.31c-.22-.05-.45-.08-.69-.1-.24-.02-.38-.03-.43-.03-.45.04-.85.08-1.21.13-.36.04-.7.1-1.04.16-.34.06-.68.14-1.02.24-.34.1-.71.23-1.11.4-.17.09-.46.24-.88.47-.42.23-.86.48-1.32.75-.46.27-.91.52-1.32.75-.42.23-.71.39-.88.47-.17.1-.36.18-.56.25-.2.07-.4.09-.6.06-.09-.21-.1-.43-.02-.65.08-.23.19-.45.35-.66.15-.22.33-.43.52-.62.19-.2.36-.37.5-.53.08-.08.21-.25.39-.5.19-.25.4-.53.65-.85.25-.32.51-.67.79-1.03.28-.37.54-.71.79-1.03.25-.32.47-.61.66-.85.19-.25.33-.41.41-.5.23-.51.51-.99.82-1.47.32-.47.63-.95.95-1.43.32-.49.61-.98.87-1.48.26-.5.45-1.03.56-1.59.15-.8.12-1.45-.09-1.93-.22-.49-.55-.85-.99-1.09-.44-.24-.97-.38-1.58-.41-.61-.03-1.24,0-1.89.12-.65.11-1.29.27-1.91.49-.63.21-1.17.44-1.64.68-.03.01-.1.05-.2.12-.1.06-.21.13-.31.2-.11.07-.21.13-.31.19-.1.06-.17.09-.2.1-.03.01-.12.01-.26,0-.14-.01-.22-.01-.26,0-.14.1-.17.25-.09.45.08.2.22.44.43.7.21.26.46.52.77.79.3.27.62.51.94.72.33.21.63.37.93.49.29.11.54.14.74.08.05-.2.03-.4-.03-.6-.07-.2-.15-.4-.24-.59s-.17-.38-.23-.57c-.06-.19-.06-.37,0-.54.06-.16.22-.32.48-.5.26-.17.55-.34.88-.49.33-.15.68-.27,1.04-.37.36-.1.69-.15.99-.17.29-.01.52.02.68.12.16.09.21.25.15.47-.02.06-.05.16-.09.31-.05.15-.1.3-.15.46-.06.16-.11.32-.16.46-.06.15-.09.25-.1.31l-.16.15c-.09.18-.2.39-.31.63s-.24.49-.36.75c-.12.26-.26.51-.39.75-.14.24-.29.45-.44.63l-4.36,5.84c-.11.07-.17.14-.2.2-.02.06-.07.15-.15.26-.22.32-.45.69-.7,1.1-.25.41-.43.82-.55,1.24-.12.42-.12.83-.01,1.22.11.39.42.74.93,1.03.6.37,1.19.57,1.75.62.56.05,1.16-.11,1.78-.47.23-.13.54-.3.92-.52.38-.22.75-.43,1.1-.64.36-.21.67-.4.94-.56.27-.16.41-.25.43-.26l.16-.17,3.2-1.52c.11-.06.27-.1.49-.13.22-.03.44-.05.66-.05s.43,0,.63,0,.34.01.43.01c.23-.1.31-.19.22-.27-.09-.08-.24-.15-.45-.2Z" style="fill:#005426;"/><path d="m116.13,2.52c-.2-.28-.41-.55-.61-.79-.21-.25-.36-.41-.45-.5-.03-.03-.09-.09-.16-.18-.08-.09-.17-.19-.27-.3-.1-.11-.19-.2-.28-.29-.09-.08-.14-.14-.15-.17-.62-.25-1.28-.29-2-.11s-1.4.5-2.08.94c-.67.44-1.28.99-1.83,1.64-.55.65-.97,1.31-1.25,1.97-.29.67-.4,1.32-.34,1.95.06.63.37,1.16.93,1.58.01.03.07.06.15.1.09.03.14.05.17.05.43.04.84.03,1.21-.03s.73-.16,1.07-.3c.34-.13.67-.3.99-.51.32-.2.64-.43.96-.69.08-.06.21-.16.41-.31.19-.15.39-.3.6-.46.21-.16.41-.32.6-.46.19-.15.33-.25.41-.31l-.16.61-4.53,9.49c-.15.34-.19.71-.11,1.12.08.41.23.75.46,1.03.2.27.37.43.5.5.13.06.24.06.32-.01.09-.07.15-.19.2-.36.05-.17.09-.35.12-.54.03-.19.06-.37.09-.55.03-.18.07-.31.11-.41l3.55-7.68v-.15l1.3-3.06c.03-.28.07-.57.13-.86.05-.3.24-.52.55-.68.06-.1.03-.27-.1-.52s-.3-.51-.5-.79Zm-2.81,1.49c-.09.16-.23.3-.42.4-.19.1-.4.22-.65.35-.25.13-.5.33-.74.61l-2.88,1.37h-.33s-.02-.08-.02-.15,0-.12.02-.15c.19-.48.4-.91.65-1.3.25-.39.53-.75.84-1.09.31-.34.65-.66,1.02-.97.37-.31.77-.63,1.21-.95.29-.17.53-.25.7-.24s.29.07.37.19c.08.12.13.28.16.49.03.2.07.42.12.64.06.37.05.63-.05.79Z" style="fill:#005426;"/><path d="m105.1,1.51c.02-.14-.03-.29-.14-.44-.11-.15-.25-.3-.43-.42-.18-.13-.37-.22-.58-.3-.21-.07-.39-.09-.55-.06-.25.56-.48,1.22-.7,1.98-.22.76-.42,1.57-.62,2.44-.19.86-.37,1.76-.55,2.68-.17.92-.32,1.82-.45,2.69-.13.87-.25,1.7-.36,2.47-.11.77-.19,1.45-.26,2.03-.03.38-.04.72-.02,1.01.02.3.07.57.16.81.09.25.24.48.43.7.19.22.45.45.78.69.28.21.52.3.72.27.2-.03.37-.12.5-.29.13-.16.23-.36.3-.58.07-.22.13-.43.17-.63l-.83.46v-1.08l2.41-14.43Z" style="fill:#005426;"/><path d="m90.45.31c-.28-.09-.53-.14-.77-.17-.23-.03-.35-.03-.35-.02l-.7,5.63s.04.14.07.28c.03.15.05.31.06.47s0,.33-.05.47c-.04.15-.12.24-.24.28.01.35.01.69,0,1.01-.02.32-.03.65-.06.97-.02.32-.04.65-.05.98,0,.33.01.66.06,1,.03.16,0,.28-.1.37-.1.09-.16.22-.17.37,0,.49,0,.99.02,1.5.01.51.09,1.01.22,1.51.13.5.34.99.62,1.48.28.49.69.95,1.23,1.38.12.09.22.15.3.19.08.03.14.05.19.05.05,0,.06-.03.05-.12l-.14-1.52.39-6.98.07-.32.44-7.91c.01-.23-.09-.42-.33-.57-.23-.16-.49-.27-.77-.36Z" style="fill:#005426;"/><path d="m85.34,17.92l.28-8.06s.03-.11.06-.19c.02-.09.04-.18.04-.27s-.02-.19-.05-.27c-.03-.09-.1-.15-.21-.19-.06,0-.17,0-.34-.01-.16,0-.33-.01-.51-.02-.18,0-.35-.01-.51-.02s-.27-.01-.34-.01c-.17.01-.28.07-.34.18-.05.1-.08.23-.08.38s0,.3.01.44c0,.15,0,.27-.03.37-.03.1-.09.25-.17.45-.09.2-.17.42-.26.64-.09.23-.17.44-.24.63-.08.2-.12.32-.14.38-.14.34-.31.68-.52,1.02-.21.35-.43.68-.66,1.01-.23.33-.46.65-.7.97-.23.32-.45.61-.65.88-.05.03-.15.1-.3.21-.16.11-.26.18-.3.19-.08.04-.14.04-.19,0,0-.03-.01-.1-.03-.22-.02-.12-.03-.19-.03-.22.05-1.76.4-3.33,1.06-4.71.66-1.38,1.62-2.65,2.89-3.81.14-.06.3-.04.49.05.19.09.39.2.63.33s.47.24.73.35.52.14.8.12l-.07-.46c-.22-.18-.4-.33-.55-.45-.15-.12-.3-.24-.45-.36-.15-.12-.28-.22-.37-.31-.14-.11-.38-.27-.71-.46-.33-.2-.67-.39-1.01-.57-.34-.18-.65-.34-.92-.46-.27-.13-.43-.17-.48-.15-.03.03-.08.07-.15.13-.07.06-.15.12-.23.18-.09.06-.16.12-.23.18-.07.06-.12.09-.15.11-.51.72-1.02,1.46-1.52,2.23-.5.77-.93,1.56-1.29,2.38-.36.82-.6,1.69-.72,2.59-.12.91-.05,1.86.21,2.86.11.44.32.82.64,1.14.32.32.68.57,1.09.74.41.17.83.24,1.27.22.43-.02.81-.16,1.14-.41.26-.2.48-.43.65-.69.17-.26.33-.53.48-.8.15-.27.3-.54.46-.79.16-.25.37-.48.62-.68l.37,2.3c.01.07.05.16.12.26.06.11.14.22.23.35.09.13.19.25.28.36.09.11.18.2.26.25.45.44.79.65,1.02.64.23,0,.33-.31.28-.9l-.63-.02Z" style="fill:#005426;"/><path d="m74.12.26c-.22-.14-.46-.22-.7-.25-.24-.03-.44,0-.6.07-.16.08-.26.22-.3.41-.04.2.03.46.2.78v4.58l-.09.32s-.12-.07-.23-.14c-.11-.06-.22-.13-.34-.19-.12-.06-.23-.12-.34-.18-.11-.06-.19-.1-.23-.13-.5.3-1.03.68-1.61,1.14-.58.46-1.15.98-1.72,1.54-.56.56-1.1,1.17-1.61,1.81-.51.65-.95,1.31-1.32,1.98s-.65,1.35-.83,2.03c-.19.68-.23,1.32-.14,1.94.09.21.22.41.39.6.17.19.36.37.56.54.2.17.41.32.62.46.21.14.4.27.57.4.37.25.75.38,1.14.37.39,0,.74-.08,1.07-.22.29-.1.56-.24.79-.41.23-.17.46-.36.67-.55.22-.19.42-.39.63-.59.2-.2.42-.39.65-.56.02.07.04.11.07.12.03,0,.05.05.05.12,0,.03.02.1.06.22.04.12.05.19.03.22.03.35.04.58.04.73.02.01.05.06.1.15.06.13.16.39.3.8.06.1.15.11.28.04.12-.07.24-.17.34-.31.1-.13.18-.27.24-.42.06-.15.06-.26,0-.33l.49-1.37-.02-.15-.14-.63-.02-.15.37-.72s-.03-.04-.03-.07c0-.03,0-.06.01-.07.01-.2.02-.4.02-.61s.02-.41.07-.6c.05-.19.13-.36.26-.5.12-.14.31-.23.56-.27l-.23-1.08.56-4.28s.06-.08.08-.15c.02-.07.03-.12.01-.15.02-.07.03-.23.04-.47,0-.25.01-.54.02-.88,0-.34.01-.7.02-1.08,0-.38.01-.74.02-1.08,0-.34.02-.63.03-.88.02-.25.02-.4.02-.47-.02-.34-.1-.63-.27-.88-.16-.24-.36-.44-.58-.58Zm-1.55,8.88c-.09.37-.23.78-.44,1.24-.21.46-.46.96-.77,1.49-.3.53-.62,1.04-.96,1.55s-.69.99-1.06,1.46c-.36.46-.7.86-1.02,1.2-.32.34-.61.6-.87.78-.26.18-.46.25-.6.21-.02-.01-.03-.04-.03-.07,0-.04,0-.06.01-.07.01-.27.08-.61.19-1.03.11-.42.25-.88.42-1.37.17-.49.36-1,.58-1.52.22-.52.44-1.01.67-1.48.23-.46.46-.87.68-1.22.22-.35.44-.61.64-.78.11-.1.25-.22.43-.36.18-.14.36-.27.55-.4.19-.13.35-.24.5-.33.15-.09.24-.14.27-.14h.83c.08.2.07.48-.01.84Z" style="fill:#005426;"/><path d="m71.54,17.56c0,.08.01.13.02.15s.01-.04.01-.18c0-.02,0-.07,0-.1,0,0-.02-.02-.02-.02-.01.01-.02.06-.01.15Z" style="fill:#005426;"/><path d="m55.46,4.5s.11.06.24.1.22.05.27.05c.03,0,.07-.02.1-.05.04-.04.06-.07.06-.1.02-.04.03-.11.05-.21.01-.1.02-.21.02-.33s0-.23-.02-.33c-.02-.1-.03-.17-.05-.21-.22-.28-.48-.47-.8-.56-.32-.09-.56-.09-.74.01-.18.1-.23.28-.14.56.09.27.42.63,1.01,1.06Z" style="fill:#005426;"/><path d="m56.18,8.17c-.34-.2-.66-.34-.95-.44-.29-.1-.65-.11-1.07-.02-.31.52-.56,1.05-.75,1.58-.19.53-.36,1.08-.49,1.62-.13.55-.24,1.11-.34,1.68-.09.57-.19,1.14-.28,1.72.03.42.07.81.12,1.16.05.35.13.68.26.97.12.3.3.57.53.83.23.26.55.5.95.73.25.14.45.17.6.08.15-.08.23-.27.23-.55v-2.45c-.03.25-.08.51-.15.78-.07.27-.18.51-.34.74-.02-.04-.03-.12-.03-.23,0-.11-.01-.23-.01-.37s0-.26.01-.38c0-.12.02-.2.03-.24.01-.13.06-.37.14-.73.08-.36.16-.75.26-1.16.09-.41.18-.8.26-1.17.08-.37.14-.63.19-.78.06-.22.2-.5.41-.81.21-.32.4-.64.57-.96.17-.32.27-.63.29-.92.02-.29-.12-.52-.43-.69Z" style="fill:#005426;"/><path d="m51.21,5.75c-.28-.03-.58-.02-.89.03-.32.05-.62.12-.89.22-.28.1-.49.17-.63.21-.17.06-.38.26-.62.62-.24.36-.49.75-.74,1.17-.26.42-.49.82-.72,1.2s-.4.62-.52.72c-.03-.13-.07-.29-.1-.47-.04-.19-.07-.43-.1-.71-.03-.28-.07-.62-.1-1.01-.04-.39-.07-.86-.1-1.39-.01-.06-.1-.17-.24-.35-.15-.18-.3-.34-.46-.49-.16-.15-.31-.25-.44-.3-.13-.05-.2.02-.2.2l-.39,9.6c-.32.17-.48.37-.45.61.02.24.13.49.31.74.19.25.41.49.67.72.26.23.48.4.65.53.01.01.09.07.21.16.12.09.26.18.42.25.15.08.3.12.44.13.14,0,.23-.07.28-.22-.2-.42-.29-1-.27-1.74.02-.74.14-1.54.35-2.39.21-.86.5-1.73.86-2.63.36-.89.77-1.7,1.23-2.41.46-.72.95-1.3,1.49-1.74.53-.44,1.07-.66,1.61-.64.01-.03.02-.08.02-.15s0-.12-.02-.15c-.14-.18-.35-.29-.63-.32Z" style="fill:#005426;"/><path d="m40.74,17.92l.28-8.06s.03-.11.06-.19c.02-.09.03-.18.03-.27s-.01-.19-.05-.27c-.03-.09-.1-.15-.21-.19-.06,0-.17,0-.34-.01-.16,0-.33-.01-.51-.02-.18,0-.35-.01-.51-.02-.16,0-.27-.01-.34-.01-.17.01-.28.07-.34.18-.06.1-.08.23-.08.38s0,.3.01.44c0,.15,0,.27-.03.37-.03.1-.09.25-.17.45-.09.2-.17.42-.26.64-.09.23-.17.44-.24.63-.08.2-.12.32-.14.38-.14.34-.31.68-.52,1.02-.21.35-.43.68-.66,1.01-.23.33-.46.65-.7.97-.23.32-.45.61-.65.88-.05.03-.15.1-.3.21-.16.11-.26.18-.3.19-.08.04-.14.04-.19,0,0-.03-.01-.1-.03-.22-.02-.12-.03-.19-.03-.22.05-1.76.4-3.33,1.06-4.71.66-1.38,1.62-2.65,2.89-3.81.14-.06.3-.04.49.05.19.09.39.2.63.33.23.13.47.24.73.35s.52.14.8.12l-.07-.46c-.22-.18-.4-.33-.55-.45-.15-.12-.3-.24-.45-.36-.15-.12-.28-.22-.37-.31-.14-.11-.37-.27-.71-.46-.33-.2-.67-.39-1.01-.57-.34-.18-.65-.34-.92-.46-.27-.13-.43-.17-.48-.15-.03.03-.08.07-.15.13-.07.06-.15.12-.23.18-.09.06-.16.12-.23.18-.07.06-.12.09-.15.11-.51.72-1.02,1.46-1.52,2.23-.5.77-.93,1.56-1.29,2.38-.36.82-.6,1.69-.72,2.59-.12.91-.05,1.86.21,2.86.11.44.32.82.64,1.14.32.32.68.57,1.09.74.41.17.83.24,1.26.22.43-.02.81-.16,1.14-.41.26-.2.48-.43.65-.69.17-.26.33-.53.47-.8.15-.27.3-.54.46-.79.16-.25.37-.48.62-.68l.37,2.3c.01.07.05.16.11.26.06.11.14.22.23.35.09.13.19.25.28.36.09.11.18.2.26.25.45.44.79.65,1.02.64.23,0,.33-.31.28-.9l-.63-.02Z" style="fill:#005426;"/><path d="m28.87,5.35c-.7.01-1.4.1-2.1.25-.7.16-1.39.36-2.05.62-.66.26-1.28.54-1.83.83-.12.07-.28.16-.48.25-.19.1-.38.21-.57.34-.19.13-.36.27-.52.42-.16.15-.27.32-.31.51-.01.18-.03.41-.05.69-.01.27-.02.56-.01.86,0,.3.04.59.1.88.06.28.16.53.3.74.06,0,.17.01.33.03.15.02.32.04.51.05.19.01.36.03.52.05.16.02.27.03.34.03h.19c.08.01.24.03.47.05.24.02.52.05.85.07.32.03.67.06,1.03.09.36.03.7.06,1.02.09.32.04.6.06.85.09.25.02.41.04.49.05.03,0,.09.02.16.05.08.04.13.07.16.1.01.01.02.04.02.08s0,.07-.02.09c-.2.24-.5.49-.91.75-.4.26-.84.51-1.31.75-.47.24-.93.45-1.38.64-.45.19-.82.33-1.11.41l-2.51,2.32s-.09.11-.17.23c-.09.13-.14.22-.17.27-.01.01-.02.04-.02.08s0,.07.02.08c.08.16.2.23.38.22.18,0,.33-.03.45-.05.71-.3,1.43-.58,2.15-.86.72-.28,1.42-.58,2.09-.91.67-.32,1.32-.69,1.94-1.11s1.2-.91,1.74-1.49c.51-.56.73-1.02.67-1.38-.06-.36-.31-.65-.73-.86-.43-.22-.97-.38-1.64-.5-.67-.11-1.34-.2-2.01-.27-.67-.07-1.29-.13-1.86-.19-.57-.06-.96-.13-1.17-.23-.02-.01-.02-.04-.02-.09s0-.07.02-.08c.2-.27.46-.51.78-.72.32-.21.66-.4,1.02-.56.36-.16.72-.31,1.06-.43.34-.13.63-.23.88-.32.09-.03.25-.07.46-.14.22-.06.45-.13.71-.2.26-.07.49-.14.72-.2.22-.06.38-.1.48-.12.06-.01.17-.03.32-.04.16-.01.33-.03.51-.05.19-.02.36-.04.52-.05.16-.01.27-.02.34-.02.25-.25.38-.58.39-.97.01-.39,0-.73-.05-1.01-.63-.17-1.3-.25-2-.23Z" style="fill:#005426;"/><path d="m17.54,17.92l.28-8.06s.03-.11.06-.19c.02-.09.04-.18.04-.27s-.02-.19-.05-.27c-.03-.09-.1-.15-.21-.19-.06,0-.17,0-.34-.01-.16,0-.33-.01-.51-.02-.18,0-.35-.01-.51-.02-.16,0-.27-.01-.34-.01-.17.01-.28.07-.34.18-.05.1-.08.23-.08.38s0,.3.01.44c0,.15,0,.27-.03.37-.03.1-.09.25-.17.45-.09.2-.17.42-.26.64-.09.23-.17.44-.24.63-.08.2-.12.32-.14.38-.14.34-.31.68-.52,1.02-.21.35-.43.68-.66,1.01-.23.33-.46.65-.7.97-.23.32-.45.61-.65.88-.05.03-.15.1-.3.21-.16.11-.26.18-.3.19-.08.04-.14.04-.19,0,0-.03-.01-.1-.03-.22-.02-.12-.03-.19-.03-.22.05-1.76.4-3.33,1.06-4.71.66-1.38,1.62-2.65,2.89-3.81.14-.06.3-.04.49.05.19.09.39.2.63.33s.47.24.73.35c.26.11.52.14.8.12l-.07-.46c-.22-.18-.4-.33-.55-.45-.15-.12-.3-.24-.45-.36-.15-.12-.28-.22-.37-.31-.14-.11-.37-.27-.71-.46-.33-.2-.67-.39-1.01-.57-.34-.18-.65-.34-.92-.46-.27-.13-.43-.17-.48-.15-.03.03-.08.07-.15.13-.07.06-.15.12-.23.18-.09.06-.16.12-.23.18-.07.06-.12.09-.15.11-.51.72-1.02,1.46-1.52,2.23-.5.77-.93,1.56-1.29,2.38-.36.82-.6,1.69-.72,2.59-.12.91-.05,1.86.21,2.86.11.44.32.82.64,1.14.32.32.68.57,1.09.74.41.17.83.24,1.27.22.43-.02.81-.16,1.14-.41.26-.2.48-.43.65-.69.17-.26.33-.53.47-.8.15-.27.3-.54.46-.79.16-.25.37-.48.62-.68l.37,2.3c.01.07.05.16.12.26.06.11.14.22.23.35.09.13.19.25.28.36.09.11.18.2.25.25.45.44.79.65,1.02.64.23,0,.33-.31.28-.9l-.63-.02Z" style="fill:#005426;"/><path d="m7.9,5.58c-.18-.08-.37-.14-.58-.18-.21-.03-.42-.06-.63-.06-.21,0-.4-.02-.57-.03-.05,0-.13,0-.24-.01-.12,0-.24-.01-.36-.01s-.24,0-.35.01c-.11,0-.19.01-.23.01-.09.01-.19.06-.3.13-.11.07-.21.15-.3.24-.09.09-.18.18-.26.25-.08.08-.12.12-.14.14-.5.49-.99,1.12-1.5,1.89-.5.77-.95,1.57-1.33,2.43-.39.85-.69,1.71-.89,2.59C0,13.84-.05,14.62.04,15.33c.08.49.26.88.53,1.16.28.28.6.56.97.84.23.17.39.3.49.4.09.1.27.17.53.21.06.01.15.03.27.05.12.02.24.04.37.06.13.02.26.04.38.05.12.01.23,0,.32-.02.05-.01.13-.04.26-.07.12-.03.26-.08.41-.13.15-.05.29-.1.42-.15.13-.05.22-.09.27-.12.08-.03.18-.08.31-.16.13-.08.26-.16.37-.26.12-.1.21-.2.29-.32.08-.11.09-.23.05-.34-.6.27-1.2.45-1.8.56-.6.11-1.23.12-1.91.05-.22-.08-.36-.24-.43-.45-.07-.22-.1-.45-.1-.71s.02-.5.07-.74c.05-.24.09-.42.14-.55.01-.1.06-.25.13-.44.07-.2.14-.4.21-.61.07-.21.14-.41.2-.59.06-.18.11-.3.14-.36.01-.06.08-.19.2-.39.12-.2.24-.43.38-.68.14-.25.27-.47.38-.68s.19-.33.22-.39c.01-.03.04-.11.08-.23.04-.13.07-.2.08-.23.01-.04.09-.18.23-.41.14-.23.29-.49.46-.78.17-.29.34-.56.5-.81.16-.25.27-.42.34-.51.15-.21.34-.37.56-.46.22-.1.44-.19.67-.26.23-.08.46-.17.7-.29.23-.11.43-.29.6-.53.01-.01.02-.04.02-.07s0-.06-.02-.07c-.11-.14-.25-.25-.43-.34Z" style="fill:#005426;"/></svg>